<mxfile host="Electron" agent="Mozilla/5.0 (X11; Linux x86_64) AppleWebKit/537.36 (KHTML, like Gecko) draw.io/24.7.17 Chrome/128.0.6613.36 Electron/32.0.1 Safari/537.36" version="24.7.17">
  <diagram name="Page-1" id="EaeIXxta39bq04EpQXvT">
    <mxGraphModel dx="935" dy="647" grid="1" gridSize="10" guides="1" tooltips="1" connect="1" arrows="1" fold="1" page="1" pageScale="1" pageWidth="850" pageHeight="1100" math="0" shadow="0">
      <root>
        <mxCell id="0" />
        <mxCell id="1" parent="0" />
        <mxCell id="3p0c9HyfVl2Db0nPEEW6-1" value="Failed Topic Subbed" style="rounded=0;whiteSpace=wrap;html=1;" vertex="1" parent="1">
          <mxGeometry x="80" y="100" width="120" height="60" as="geometry" />
        </mxCell>
        <mxCell id="3p0c9HyfVl2Db0nPEEW6-2" value="Reset Topic Pub&lt;br&gt;Create new maze&lt;br&gt;Pose reset, etc" style="rounded=0;whiteSpace=wrap;html=1;" vertex="1" parent="1">
          <mxGeometry x="530" y="100" width="120" height="60" as="geometry" />
        </mxCell>
        <mxCell id="3p0c9HyfVl2Db0nPEEW6-3" value="" style="shape=flexArrow;endArrow=classic;html=1;rounded=0;" edge="1" parent="1">
          <mxGeometry width="50" height="50" relative="1" as="geometry">
            <mxPoint x="230" y="129.5" as="sourcePoint" />
            <mxPoint x="510" y="129.5" as="targetPoint" />
          </mxGeometry>
        </mxCell>
        <mxCell id="3p0c9HyfVl2Db0nPEEW6-4" value="100秒経過" style="rounded=0;whiteSpace=wrap;html=1;" vertex="1" parent="1">
          <mxGeometry x="80" y="200" width="120" height="60" as="geometry" />
        </mxCell>
        <mxCell id="3p0c9HyfVl2Db0nPEEW6-5" value="" style="shape=flexArrow;endArrow=classic;html=1;rounded=0;" edge="1" parent="1">
          <mxGeometry width="50" height="50" relative="1" as="geometry">
            <mxPoint x="220" y="229.5" as="sourcePoint" />
            <mxPoint x="510" y="160" as="targetPoint" />
          </mxGeometry>
        </mxCell>
        <mxCell id="3p0c9HyfVl2Db0nPEEW6-6" value="Failed判定" style="rounded=0;whiteSpace=wrap;html=1;" vertex="1" parent="1">
          <mxGeometry x="80" y="340" width="120" height="60" as="geometry" />
        </mxCell>
        <mxCell id="3p0c9HyfVl2Db0nPEEW6-7" value="&lt;font style=&quot;font-size: 19px;&quot;&gt;Occupancy_Maze_Simulator&lt;/font&gt;" style="text;html=1;align=center;verticalAlign=middle;whiteSpace=wrap;rounded=0;" vertex="1" parent="1">
          <mxGeometry x="340" y="60" width="60" height="30" as="geometry" />
        </mxCell>
        <mxCell id="3p0c9HyfVl2Db0nPEEW6-8" value="&lt;font style=&quot;font-size: 19px;&quot;&gt;Path_Planner&lt;/font&gt;" style="text;html=1;align=center;verticalAlign=middle;whiteSpace=wrap;rounded=0;" vertex="1" parent="1">
          <mxGeometry x="275" y="290" width="190" height="30" as="geometry" />
        </mxCell>
        <mxCell id="3p0c9HyfVl2Db0nPEEW6-9" value="" style="shape=flexArrow;endArrow=classic;html=1;rounded=0;" edge="1" parent="1">
          <mxGeometry width="50" height="50" relative="1" as="geometry">
            <mxPoint x="220" y="369.5" as="sourcePoint" />
            <mxPoint x="500" y="369.5" as="targetPoint" />
          </mxGeometry>
        </mxCell>
        <mxCell id="3p0c9HyfVl2Db0nPEEW6-10" value="Failed Topic Pub&lt;div&gt;Failed = true&lt;br&gt;いろいろ処理スキップ&lt;br&gt;RCLCPP_ERROR&lt;/div&gt;" style="rounded=0;whiteSpace=wrap;html=1;" vertex="1" parent="1">
          <mxGeometry x="527.5" y="340" width="125" height="60" as="geometry" />
        </mxCell>
        <mxCell id="3p0c9HyfVl2Db0nPEEW6-11" value="Reset Topic Sub" style="rounded=0;whiteSpace=wrap;html=1;" vertex="1" parent="1">
          <mxGeometry x="80" y="420" width="120" height="60" as="geometry" />
        </mxCell>
        <mxCell id="3p0c9HyfVl2Db0nPEEW6-12" value="" style="shape=flexArrow;endArrow=classic;html=1;rounded=0;" edge="1" parent="1">
          <mxGeometry width="50" height="50" relative="1" as="geometry">
            <mxPoint x="220" y="449.5" as="sourcePoint" />
            <mxPoint x="500" y="449.5" as="targetPoint" />
          </mxGeometry>
        </mxCell>
        <mxCell id="3p0c9HyfVl2Db0nPEEW6-13" value="Yaw角リセット&lt;div&gt;failed_ = false&lt;/div&gt;" style="rounded=0;whiteSpace=wrap;html=1;" vertex="1" parent="1">
          <mxGeometry x="535" y="420" width="110" height="60" as="geometry" />
        </mxCell>
        <mxCell id="3p0c9HyfVl2Db0nPEEW6-16" value="現状、OMCがエラーマネージャーのような役割をしている。&lt;div&gt;実機ではOMCは存在しないので、エラーマネージャーを作る必要がある。&lt;/div&gt;" style="rounded=1;whiteSpace=wrap;html=1;" vertex="1" parent="1">
          <mxGeometry x="420" y="210" width="240" height="70" as="geometry" />
        </mxCell>
      </root>
    </mxGraphModel>
  </diagram>
</mxfile>
